# xmcd
#
# Track frame offsets:
#	150
#	10341
#	21824
#	30622
#	39956
#	48982
#	58354
#	67102
#	76977
#	87497
#	100679
#	108140
#	117460
#	126512
#	137193
#	147067
#	155936
#	164186
#	174868
#	186731
#	198218
#	208326
#	218619
#	228204
#	238659
#	249502
#	258049
#	265590
#
# Disc length: 3676 seconds
# Revision: 0
# Processed by: cddbd v1.5.2PL0 Copyright (c) Steve Scherf et al.
# Submitted via: dBpowerAMP V12.0
#
DISCID=960e5a1c
DTITLE=Ricky Nelson - Best of Ricky Nelson, the - Disc 2
DYEAR=1900
DGENRE=Rock and Roll
TTITLE0=There Goes My Baby
TTITLE1=Down The Line
TTITLE2=Boppin' The Blues
TTITLE3=Half Breed
TTITLE4=Shirley Lee
TTITLE5=I've Been Thinkin'
TTITLE6=Restless Kid
TTITLE7=Whole Lotta Shakin' Goin' On
TTITLE8=I Can't Help It
TTITLE9=Honeycomb
TTITLE10=Am I Blue?
TTITLE11=One Minute To One
TTITLE12=So Long
TTITLE13=Be True To Me
TTITLE14=Blood From A Stone
TTITLE15=Your True Love
TTITLE16=There's Good Rockin' Tonight
TTITLE17=Baby, I'm Sorry
TTITLE18=I'll Walk Alone
TTITLE19=You'll Never Know What You're Missing
TTITLE20=Tryin' To Get To You
TTITLE21=I'm Confessin'
TTITLE22=A Long Vacation
TTITLE23=I'm Feelin' Sorry
TTITLE24=You're So Fine
TTITLE25=If You Can't Rock Me
TTITLE26=Teenage Doll
TTITLE27=True Love
EXTD=
EXTT0=
EXTT1=
EXTT2=
EXTT3=
EXTT4=
EXTT5=
EXTT6=
EXTT7=
EXTT8=
EXTT9=
EXTT10=
EXTT11=
EXTT12=
EXTT13=
EXTT14=
EXTT15=
EXTT16=
EXTT17=
EXTT18=
EXTT19=
EXTT20=
EXTT21=
EXTT22=
EXTT23=
EXTT24=
EXTT25=
EXTT26=
EXTT27=
PLAYORDER=
